<?xml version="1.0" encoding="UTF-8" standalone="no"?><!DOCTYPE svg PUBLIC "-//W3C//DTD SVG 1.1//EN" "http://www.w3.org/Graphics/SVG/1.1/DTD/svg11.dtd"><svg width="100%" height="100%" viewBox="0 0 711 141" version="1.1" xmlns="http://www.w3.org/2000/svg" xmlns:xlink="http://www.w3.org/1999/xlink" xml:space="preserve" xmlns:serif="http://www.serif.com/" style="fill-rule:evenodd;clip-rule:evenodd;stroke-linejoin:round;stroke-miterlimit:1.41421;"><rect id="Page-6" serif:id="Page 6" x="0" y="0" width="710.01" height="140.96" style="fill:none;"/><clipPath id="_clip1"><rect x="0" y="0" width="710.01" height="140.96"/></clipPath><g clip-path="url(#_clip1)"><g id="Layer-1" serif:id="Layer 1"><path d="M153.024,70.181c0,-23.855 17.861,-43.395 43.273,-43.395c15.465,0 24.815,5.395 32.846,13.067l-9.469,10.908c-6.712,-6.232 -13.906,-10.43 -23.496,-10.43c-16.062,0 -27.689,13.188 -27.689,29.85c0,16.422 11.627,29.848 27.689,29.848c10.309,0 16.903,-4.196 24.096,-10.909l9.469,9.59c-8.75,9.112 -18.34,14.866 -34.043,14.866c-24.455,0 -42.676,-19.061 -42.676,-43.395" style="fill:#279ee1;fill-rule:nonzero;"/><rect x="241.36" y="24.628" width="14.504" height="87.508" style="fill:#279ee1;"/><path d="M321.31,80.608c0,-11.146 -8.031,-20.377 -19.418,-20.377c-11.629,0 -19.061,9.109 -19.061,20.377c0,11.029 8.032,20.379 19.299,20.379c11.748,0 19.18,-9.231 19.18,-20.379m-52.982,0c0,-18.1 14.384,-33.084 33.802,-33.084c19.42,0 33.686,14.744 33.686,33.084c0,17.982 -14.385,32.967 -33.924,32.967c-19.301,0 -33.564,-14.746 -33.564,-32.967" style="fill:#279ee1;fill-rule:nonzero;"/><path d="M342.397,103.864l6.475,-9.83c6.832,5.154 14.263,7.793 20.738,7.793c6.232,0 9.828,-2.639 9.828,-7.072c0,-4.676 -6.113,-6.354 -13.066,-8.393c-0.36,-0.119 -0.719,-0.238 -1.079,-0.359c-9.349,-2.756 -19.779,-6.592 -19.779,-18.94c0,-11.988 9.949,-19.299 22.537,-19.299c7.91,0 16.541,2.756 23.254,7.192l-5.754,10.308c-6.113,-3.714 -12.586,-5.992 -17.859,-5.992c-5.635,0 -8.871,2.637 -8.871,6.592c0,4.316 6.113,6.234 13.066,8.512c0.36,0.119 0.838,0.24 1.197,0.359c9.231,2.877 19.661,7.072 19.661,18.699c0,13.307 -10.309,19.901 -23.496,19.901c-8.991,0 -18.94,-3.237 -26.852,-9.471" style="fill:#279ee1;fill-rule:nonzero;"/><path d="M447.88,76.054c-0.959,-9.35 -6.473,-16.662 -16.062,-16.662c-8.872,0 -15.104,6.832 -16.422,16.662l32.484,0Zm-46.869,4.436c0,-18.102 12.826,-32.965 30.926,-32.965c20.138,0 30.328,15.822 30.328,34.043c0,0.959 -0.119,3.357 -0.24,4.076l-46.51,0c1.558,10.308 8.871,16.062 18.22,16.062c7.073,0 12.108,-2.636 17.143,-7.55l8.51,7.55c-5.992,7.194 -14.264,11.869 -25.893,11.869c-18.34,0 -32.484,-13.306 -32.484,-33.085" style="fill:#279ee1;fill-rule:nonzero;"/><path d="M468.368,28.225l16.303,0l25.293,64.491l25.174,-64.491l15.943,0l-34.883,84.511l-12.947,0l-34.883,-84.511Z" style="fill:#40baff;fill-rule:nonzero;"/><path d="M559.224,48.843l14.504,0l0,63.293l-14.504,0l0,-63.293Zm-0.6,-23.495l15.584,0l0,13.786l-15.584,0l0,-13.786Z" style="fill:#40baff;fill-rule:nonzero;"/><rect x="590.507" y="24.628" width="14.506" height="87.508" style="fill:#40baff;"/><rect x="621.79" y="24.628" width="14.504" height="87.508" style="fill:#40baff;"/><path d="M695.626,76.054c-0.959,-9.35 -6.473,-16.662 -16.062,-16.662c-8.872,0 -15.104,6.832 -16.422,16.662l32.484,0Zm-46.869,4.436c0,-18.102 12.826,-32.965 30.926,-32.965c20.138,0 30.328,15.822 30.328,34.043c0,0.959 -0.119,3.357 -0.24,4.076l-46.51,0c1.558,10.308 8.871,16.062 18.22,16.062c7.073,0 12.108,-2.636 17.143,-7.55l8.51,7.55c-5.992,7.194 -14.264,11.869 -25.893,11.869c-18.34,0 -32.484,-13.306 -32.484,-33.085" style="fill:#40baff;fill-rule:nonzero;"/><path d="M96,115.76c-7.54,4.28 -16.24,6.721 -25.52,6.721c-28.68,0 -52,-23.321 -52,-52l-18.48,0c0,38.859 31.62,70.479 70.48,70.479c14.7,0 28.36,-4.519 39.66,-12.26l-14.14,-12.94Z" style="fill:#279ee1;fill-rule:nonzero;"/><path d="M110.14,12.26l-14.14,12.94c-7.54,-4.28 -16.24,-6.719 -25.519,-6.719c-28.681,0 -52,23.34 -52,52l-18.481,0c0,-38.861 31.62,-70.481 70.481,-70.481c14.699,0 28.359,4.52 39.659,12.26" style="fill:#40baff;fill-rule:nonzero;"/><path d="M76.46,97.88c-1.92,0.42 -3.92,0.64 -5.979,0.64c-15.46,0 -28.041,-12.579 -28.041,-28.039l-18.48,0c0,25.659 20.86,46.539 46.521,46.539c7.659,0 14.879,-1.88 21.259,-5.16l-15.28,-13.98Z" style="fill:#279ee1;fill-rule:nonzero;"/><path d="M91.72,29.1l-15.26,13.98c-1.939,-0.4 -3.92,-0.639 -5.979,-0.639c-15.46,0 -28.04,12.579 -28.04,28.04l-18.481,0c0,-25.641 20.861,-46.521 46.521,-46.521c7.659,0 14.88,1.861 21.239,5.14" style="fill:#40baff;fill-rule:nonzero;"/><path d="M133.66,0l-25.9,70.48l-50.86,0l76.76,-70.48Z" style="fill:#40baff;fill-rule:nonzero;"/><path d="M133.66,140.96l-17.86,-16.56l-58.9,-53.919l50.86,0l25.9,70.479Z" style="fill:#279ee1;fill-rule:nonzero;"/></g></g></svg>